# xmcd
#
# Track frame offsets:
#	150
#	16878
#	33972
#	49180
#	64893
#	81441
#	96273
#	116030
#	131843
#	146765
#	163785
#
# Disc length: 2450 seconds
#
# Revision: 1
# Processed by: cddbd v1.5.2PL0 Copyright (c) Steve Scherf et al.
# Submitted via: audiograbber 1.83.01
#
DISCID=9d09900b
DTITLE=Eli Young Band - 10,000 Towns
DYEAR=2014
DGENRE=Country
TTITLE0=Drunk Last Night
TTITLE1=10,000 Towns
TTITLE2=Dust
TTITLE3=Angel Like You
TTITLE4=Let's Do Something Tonight
TTITLE5=Your Last Broken Heart
TTITLE6=What Does
TTITLE7=A Lot Like Love
TTITLE8=Just Add Moonlight
TTITLE9=Revalations
TTITLE10=Prayer For The Road
EXTD=
EXTT0=
EXTT1=
EXTT2=
EXTT3=
EXTT4=
EXTT5=
EXTT6=
EXTT7=
EXTT8=
EXTT9=
EXTT10=
PLAYORDER=
